<?xml version="1.0" encoding="UTF-8" standalone="no"?>
<!-- Created with Inkscape (http://www.inkscape.org/) -->

<svg
   xmlns:dc="http://purl.org/dc/elements/1.1/"
   xmlns:cc="http://creativecommons.org/ns#"
   xmlns:rdf="http://www.w3.org/1999/02/22-rdf-syntax-ns#"
   xmlns:svg="http://www.w3.org/2000/svg"
   xmlns="http://www.w3.org/2000/svg"
   version="1.1"
   width="1020"
   height="495"
   id="svg2">
  <metadata
     id="metadata28">
    <rdf:RDF>
      <cc:Work
         rdf:about="">
        <dc:format>image/svg+xml</dc:format>
        <dc:type
           rdf:resource="http://purl.org/dc/dcmitype/StillImage" />
        <dc:title></dc:title>
      </cc:Work>
    </rdf:RDF>
  </metadata>
  <defs
     id="defs4" />
  <g
     transform="matrix(5.7658033,0,0,5.7658033,-216.55705,-1629.403)"
     id="g3854"
     style="fill:#000000;fill-opacity:1">
    <path
       d="m 77.998457,338.04465 c 9.719843,-3.74035 16.634311,-13.17634 16.634311,-24.1989 0,-14.29201 -11.62467,-25.91668 -25.916678,-25.91668 -14.292008,0 -25.95413,11.62467 -25.95413,25.91668 0,14.29201 11.662122,25.91668 25.95413,25.91668 0.54665,0 1.089397,-0.017 1.627741,-0.0505 -0.212847,-1.56081 -0.14221,-4.09918 0.0472,-5.10887 -0.552337,0.0437 -1.110922,0.0659 -1.674938,0.0659 -11.526965,0 -20.823227,-9.29627 -20.823227,-20.82323 0,-11.52696 9.296262,-20.82323 20.823227,-20.82323 l 0,4e-5 c 11.526959,0 20.785775,9.29627 20.785775,20.82323 0,7.91769 -4.368408,14.78291 -10.83969,18.30588 -0.315166,1.3712 -0.711622,4.31209 -0.663721,5.893 z"
       id="path3016"
       style="fill:#000000;fill-opacity:1" />
    <path
       d="m 118.12057,340.00218 c -1.34862,10.20474 -10.02005,18.04148 -20.603518,18.04148 -11.52697,0 -20.82323,-9.29627 -20.82323,-20.82323 0,-7.8992 4.36561,-14.75085 10.82304,-18.28114 0.45237,-1.7753 0.72684,-3.69514 0.65576,-5.89574 -9.70007,3.75525 -16.6097,13.17589 -16.6097,24.17688 0,14.29201 11.66212,25.91668 25.95413,25.91668 13.026538,0 23.837178,-9.65722 25.649488,-22.18923 -1.32835,-0.0348 -4.11703,-0.60321 -5.04597,-0.9457 z m 4.98685,-6.89716 c -1.97707,-12.3428 -12.69857,-21.80127 -25.590368,-21.80127 -0.5666,0 -1.12907,0.0183 -1.68684,0.0542 0.31178,1.20255 0.3074,3.96583 -0.0166,5.10739 l 0,6e-5 c 0.5617,-0.0452 1.1298,-0.0682 1.70343,-0.0682 9.546428,0 17.537168,6.37619 20.001238,15.11504 1.68318,0.64085 3.49015,1.20604 5.58913,1.59278 z"
       id="path3790"
       style="fill:#000000;fill-opacity:1" />
    <path
       d="m 157.72746,317.82769 c 1.60373,10.29047 9.36704,19.0414 20.1411,21.36875 13.96979,3.01767 27.78686,-5.89044 30.80453,-19.86023 3.01768,-13.9698 -5.88253,-27.82347 -19.85233,-30.84115 -13.96979,-3.01767 -27.79477,5.92705 -30.81244,19.89685 -0.11542,0.53432 -0.2134,1.06841 -0.29433,1.6017 1.57057,0.12151 4.03679,0.72651 4.98373,1.12484 0.0739,-0.54911 0.17015,-1.09979 0.28924,-1.65109 2.43385,-11.26709 13.48338,-18.39092 24.75047,-15.95707 11.26708,2.43385 18.39092,13.48338 15.95706,24.75047 l -3e-5,-1e-5 c -2.43385,11.26709 -13.47548,18.35431 -24.74257,15.92046 -7.73918,-1.67178 -13.52726,-7.39124 -15.60443,-14.46049 -1.27374,-0.59757 -4.06462,-1.60605 -5.62,-1.89303 z"
       id="path3842"
       style="fill:#000000;fill-opacity:1" />
    <path
       d="m 105.40431,311.064 c 1.34862,-10.20474 10.02005,-18.04148 20.60351,-18.04148 11.52697,0 20.82323,9.29627 20.82323,20.82323 0,7.8992 -4.36561,14.75085 -10.82304,18.28114 -0.45237,1.7753 -0.72684,3.69514 -0.65576,5.89574 9.70007,-3.75525 16.6097,-13.17589 16.6097,-24.17688 0,-14.29201 -11.66212,-25.91668 -25.95413,-25.91668 -13.02653,0 -23.83717,9.65722 -25.64948,22.18923 1.32835,0.0348 4.11703,0.60321 5.04597,0.9457 z m -4.98685,6.89716 c 1.97707,12.3428 12.69857,21.80127 25.59036,21.80127 0.5666,0 1.12907,-0.0183 1.68684,-0.0542 -0.31178,-1.20255 -0.3074,-3.96583 0.0166,-5.10739 l 0,-6e-5 c -0.5617,0.0452 -1.1298,0.0682 -1.70343,0.0682 -9.54642,0 -17.53716,-6.37619 -20.00123,-15.11504 -1.68318,-0.64085 -3.49015,-1.20604 -5.58913,-1.59278 z"
       id="path3850"
       style="fill:#000000;fill-opacity:1" />
    <path
       d="m 175.43867,340.00219 c -1.34862,10.20474 -10.02005,18.04148 -20.60351,18.04148 -11.52697,0 -20.82323,-9.29627 -20.82323,-20.82323 0,-7.8992 4.36561,-14.75085 10.82304,-18.28114 0.45237,-1.7753 0.72684,-3.69514 0.65576,-5.89574 -9.70007,3.75525 -16.6097,13.17589 -16.6097,24.17688 0,14.29201 11.66212,25.91668 25.95413,25.91668 13.02653,0 23.83717,-9.65722 25.64948,-22.18923 -1.32835,-0.0348 -4.11703,-0.60321 -5.04597,-0.9457 z m 4.98685,-6.89716 c -1.97707,-12.3428 -12.69857,-21.80127 -25.59036,-21.80127 -0.5666,0 -1.12907,0.0183 -1.68684,0.0542 0.31178,1.20255 0.3074,3.96583 -0.0166,5.10739 l 0,6e-5 c 0.5617,-0.0452 1.1298,-0.0682 1.70343,-0.0682 9.54642,0 17.53716,6.37619 20.00123,15.11504 1.68318,0.64085 3.49015,1.20604 5.58913,1.59278 z"
       id="path3852"
       style="fill:#000000;fill-opacity:1" />
  </g>
</svg>
